<?xml version="1.0" standalone="no"?>
<!DOCTYPE svg PUBLIC "-//W3C//DTD SVG 20010904//EN"
 "http://www.w3.org/TR/2001/REC-SVG-20010904/DTD/svg10.dtd">
<svg version="1.0" xmlns="http://www.w3.org/2000/svg"
 width="645.000000pt" height="1280.000000pt" viewBox="0 0 645.000000 1280.000000"
 preserveAspectRatio="xMidYMid meet">
<metadata>
Created by potrace 1.15, written by Peter Selinger 2001-2017
</metadata>
<g transform="translate(0.000000,1280.000000) scale(0.100000,-0.100000)"
fill="#000000" stroke="none">
<path d="M1462 12785 c-210 -46 -404 -230 -463 -440 -17 -63 -18 -223 0 -295
7 -30 31 -93 53 -140 78 -163 250 -297 426 -331 75 -14 220 -7 280 14 23 8 42
12 42 8 0 -4 -16 -23 -36 -42 -19 -18 -49 -58 -66 -88 -27 -47 -32 -68 -39
-160 -12 -149 -23 -208 -80 -415 -47 -167 -115 -419 -174 -641 -25 -92 -36
-234 -52 -672 l-6 -171 -45 -38 c-59 -49 -129 -146 -143 -197 -11 -42 -56 -93
-132 -150 -44 -33 -47 -58 -12 -109 14 -20 25 -39 25 -42 0 -3 -15 -6 -32 -8
-51 -5 -49 -41 7 -143 l46 -85 -35 -34 c-42 -39 -48 -82 -16 -111 16 -14 20
-31 20 -77 0 -55 2 -59 33 -78 17 -11 49 -23 70 -26 20 -4 37 -9 37 -12 0 -7
-92 -153 -186 -295 -135 -204 -304 -508 -324 -586 -14 -52 -14 -319 0 -451 5
-52 15 -164 20 -248 14 -199 34 -306 70 -369 16 -27 65 -99 110 -159 70 -93
81 -113 76 -137 -3 -16 -42 -113 -86 -215 -89 -204 -87 -196 -116 -512 -17
-190 -33 -264 -150 -668 -74 -258 -91 -298 -152 -365 -51 -53 -77 -59 -122
-25 -24 17 -32 19 -45 8 -21 -17 -19 -29 12 -75 25 -36 26 -42 16 -90 -18 -85
-50 -138 -150 -252 -128 -145 -130 -148 -108 -173 10 -11 26 -20 37 -20 10 0
18 -2 18 -4 0 -1 -20 -34 -45 -72 -25 -37 -45 -73 -45 -79 0 -21 36 -45 67
-45 38 0 83 47 193 203 41 58 79 106 84 107 10 0 1 -75 -19 -156 -8 -32 -36
-99 -61 -148 -50 -98 -49 -106 17 -106 53 0 82 35 129 158 23 59 45 116 50
127 5 12 6 -30 3 -105 -6 -130 2 -170 33 -170 8 0 19 12 25 28 18 45 49 208
58 301 8 92 8 91 105 228 48 67 60 106 76 261 16 144 43 212 349 896 62 137
115 262 118 279 l6 30 18 -24 c10 -13 19 -32 19 -42 0 -12 16 -25 44 -38 38
-16 47 -26 60 -66 9 -26 16 -65 16 -87 0 -53 16 -111 74 -271 61 -169 101
-329 126 -507 12 -79 41 -217 65 -308 24 -91 60 -237 80 -325 20 -88 45 -189
55 -225 10 -36 33 -130 51 -210 21 -96 43 -165 64 -205 30 -57 34 -60 66 -57
48 3 408 69 555 101 68 15 124 24 124 19 0 -4 38 -57 85 -117 124 -159 225
-232 488 -350 26 -12 46 -25 43 -30 -12 -19 227 -215 663 -544 211 -158 239
-177 266 -172 26 4 37 -1 71 -37 23 -24 62 -71 89 -106 42 -56 46 -67 37 -87
-10 -21 -6 -31 28 -73 21 -27 104 -117 184 -200 80 -82 146 -152 146 -156 0
-3 -11 -6 -24 -6 -13 0 -32 -3 -41 -6 -14 -6 -14 -9 1 -33 10 -14 35 -44 57
-66 45 -45 83 -123 93 -188 4 -23 14 -55 24 -72 10 -16 25 -62 33 -102 18 -79
40 -127 129 -281 l60 -102 -7 -163 c-7 -157 -6 -163 15 -189 12 -15 19 -32 16
-37 -7 -10 87 -41 122 -41 12 0 29 12 39 28 17 24 86 169 126 262 l15 35 -5
-53 -6 -53 53 -49 c63 -58 94 -68 129 -42 37 26 151 170 226 282 142 214 371
652 474 906 37 93 92 227 120 297 29 70 50 135 47 143 -3 8 -38 30 -78 48
-213 97 -213 97 -351 112 -72 7 -163 14 -200 14 -102 0 -193 47 -221 113 -25
60 -294 393 -359 444 -14 11 -67 69 -119 130 -51 61 -123 144 -160 185 -38 42
-68 82 -68 90 0 16 -184 228 -317 364 -49 50 -114 107 -144 127 -88 56 -496
257 -517 254 -12 -1 -69 47 -166 140 l-147 142 64 83 c69 91 167 264 167 297
0 12 -7 21 -15 21 -8 0 -33 7 -55 16 -60 24 -103 113 -120 249 -15 123 -41
210 -78 261 -40 55 -156 147 -233 185 -35 18 -69 39 -76 48 -6 9 -14 41 -18
71 -9 71 -25 109 -68 156 -71 80 -75 115 -17 144 22 11 40 26 40 33 0 29 -41
89 -126 187 -49 56 -110 130 -135 164 -51 68 -58 72 -244 136 -73 25 -121 37
-123 31 -6 -18 -19 -13 -25 9 -3 11 -20 28 -37 37 -18 10 -42 26 -54 35 l-21
16 29 30 c23 25 29 43 37 107 5 45 15 85 24 95 10 12 15 38 15 88 0 71 0 72
-41 109 -23 21 -49 54 -60 74 -18 37 -60 62 -109 65 -46 3 -50 4 -50 15 0 6
32 45 71 87 76 82 93 108 103 162 5 31 24 251 41 480 11 147 -18 326 -70 430
-26 53 -60 221 -75 375 -18 179 -45 253 -122 341 -45 51 -78 65 -132 58 -25
-4 -46 -4 -46 0 0 3 23 43 51 87 28 45 58 100 66 123 41 111 34 313 -13 393
-59 101 -123 150 -259 197 l-60 21 3 80 c3 54 20 143 53 272 l49 191 15 504
c17 587 24 745 36 811 11 59 43 106 147 219 68 73 81 93 86 130 40 298 39 427
-3 524 -12 26 -21 61 -21 78 0 52 -39 177 -77 246 -51 92 -162 198 -254 244
-127 62 -264 80 -397 51z m308 -7279 c0 -2 -8 -10 -17 -17 -16 -13 -17 -12 -4
4 13 16 21 21 21 13z m-40 -30 c0 -3 -46 -41 -103 -85 -57 -43 -109 -87 -117
-96 -7 -9 -23 -21 -34 -27 l-21 -11 20 23 c17 19 245 200 253 200 1 0 2 -2 2
-4z m2605 -2909 c108 -97 202 -174 209 -171 16 6 260 -231 252 -244 -12 -20
325 -411 409 -475 l43 -33 -47 -11 c-53 -12 -45 -19 -190 163 -97 122 -281
311 -308 316 -20 3 -193 198 -193 216 0 6 -17 25 -38 44 -21 18 -96 96 -167
173 -71 77 -149 162 -174 189 -68 73 -15 29 204 -167z"/>
</g>
</svg>
